<?xml version="1.0" encoding="utf-8"?>
<svg version="1.1" id="Layer_1" x="0px" y="0px" viewBox="0 0 1920 1080" style="enable-background:new 0 0 1920 1080;" xmlns="http://www.w3.org/2000/svg">
  <style type="text/css">
	.st0{fill:#FFFFFF;}
</style>
  <path class="st0" d="M 108.96 3.092 C 49.66 3.092 1.66 51.092 1.66 110.392 C 1.66 169.692 49.66 217.692 108.96 217.692 C 168.26 217.692 216.26 169.692 216.26 110.392 C 216.26 51.092 168.16 3.092 108.96 3.092 Z M 117.76 79.292 L 121.96 74.392 L 136.36 57.592 L 149.46 57.592 L 121.76 89.792 C 121.76 89.792 118.66 86.092 117.66 84.892 C 116.26 83.292 116.36 80.892 117.76 79.292 Z M 82.96 57.592 C 82.96 57.592 106.16 85.292 114.56 93.892 C 115.86 95.192 115.66 96.992 114.46 98.392 C 109.96 103.592 109.86 103.692 109.86 103.692 L 69.96 57.592 L 82.96 57.592 Z M 101.86 140.792 L 97.66 145.692 L 83.16 162.592 L 70.06 162.592 L 97.76 130.392 C 97.76 130.392 100.86 134.092 101.86 135.292 C 103.26 136.792 103.26 139.292 101.86 140.792 Z M 102.36 112.492 C 91.06 125.492 59.46 162.492 59.46 162.492 L 45.36 162.492 L 88.46 112.592 C 89.86 110.992 89.86 108.592 88.46 107.092 L 45.66 57.592 L 59.16 57.592 L 102.16 107.492 C 103.36 108.992 103.56 111.092 102.36 112.492 Z M 136.36 162.592 L 107.16 128.492 L 105.66 126.692 C 104.26 125.092 104.36 122.592 105.76 121.092 L 160.26 57.692 L 173.76 57.692 L 118.96 120.292 C 117.56 121.792 117.46 124.292 118.86 125.892 L 150.46 162.692 L 136.36 162.592 Z M 161.26 162.592 C 161.26 162.592 137.66 135.092 129.86 125.892 C 128.96 124.892 128.66 123.392 128.96 122.092 C 129.16 121.392 129.76 120.592 130.26 119.992 L 133.96 115.992 L 174.16 162.592 L 161.26 162.592 Z"/>
  <g transform="matrix(1, 0, 0, 1, -533.639771, -431.408081)">
    <g>
      <rect x="807.4" y="497.5" class="st0" width="16.5" height="85.9"/>
      <path class="st0" d="M910.5,520.9c-8.2,0-15.8,3.4-20.2,10.5c-3.3-7-10.1-10.5-18.7-10.5c-7.4,0-14.2,3.2-18.3,9.9v-8.7h-15.9 v61.3h15.9v-34.1c0-8.6,5.8-15,13.2-15h1c6.5,0,9.6,4.1,9.6,12.3v36.8h15.9v-34.1c0-8.6,5.8-15,13.1-15h1c6.5,0,9.5,4.1,9.5,12.3 v36.8h15.9v-38.6c0-7.2-1.7-13-5.2-17.4C923.5,523,918,520.9,910.5,520.9z"/>
      <path class="st0" d="M1016.4,520.9c-8.2,0-15.8,3.4-20.2,10.5c-3.3-7-10.1-10.5-18.7-10.5c-7.4,0-14.2,3.2-18.3,9.9v-8.7h-15.9 v61.3h15.9v-34.1c0-8.6,5.8-15,13.2-15h1c6.5,0,9.6,4.1,9.6,12.3v36.8h15.9v-34.1c0-8.6,5.8-15,13.1-15h1c6.5,0,9.5,4.1,9.5,12.3 v36.8h15.9v-38.6c0-7.2-1.7-13-5.2-17.4C1029.5,523,1024,520.9,1016.4,520.9z"/>
      <path class="st0" d="M1137.1,563.2V535h13.7v-12.9h-13.7v-19.9h-15.9v19.9h-18.1h-15.4h-0.5v34.1c0,8.6-5.7,15.6-12.6,15.6h-1 c-5.8,0-9.1-4.3-9.1-12.2v-37.4h-15.9v39.2c0,7.1,1.7,12.8,5.2,17c3.4,4.2,8.6,6.3,15.5,6.3c7.6,0,14.1-3.9,17.9-10.2v9h15.9V535 h18.1v32.5c0,10.4,5.6,15.9,15.9,15.9h15.6v-13.5h-8.8C1138.2,569.9,1137.1,568.8,1137.1,563.2z"/>
      <path class="st0" d="M1209.5,542.9c0-14.1-10.3-22-25.8-22c-15.1,0-25.1,8.6-26.4,20.2h16c0.4-3.7,4.1-7.3,9.9-7.3h1 c5.9,0,9.8,4.2,9.8,9.8v1.5l-15.4,1.4c-6.6,0.5-12,2.5-16.2,5.8c-4.2,3.3-6.3,8.1-6.3,14.4c-0.2,10.8,9.1,18.1,20.1,18 c7.8,0,14.3-3.3,18.1-8.7c0.1,3.2,0.4,5.8,0.7,7.5h15c-0.4-2.9-0.6-7.4-0.6-13.5L1209.5,542.9L1209.5,542.9z M1194,558.4 c0,7.7-6.4,13.3-13.7,13.3h-1c-4.4,0-7.6-2.5-7.6-6.2c0-2.3,0.9-4.1,2.7-5.3c1.8-1.3,3.9-2,6.2-2.2l13.3-1.4V558.4z"/>
      <path class="st0" d="M1254.1,520.9c-8.2,0-15,4.7-17.7,9.2v-32.5h-15.9v85.9h15.9v-8c2.6,4.5,9.5,9.2,17.7,9.2 c17.2,0.3,27.4-15.1,27.2-31.9C1281.5,536,1271.3,520.6,1254.1,520.9z M1251.4,571.7h-1c-7.3,0.2-14.1-7.7-14-19 c-0.1-11.3,6.7-19.2,14-19h1c8,0,14,7.4,14,18.9C1265.4,564.1,1259.4,571.7,1251.4,571.7z"/>
      <rect x="1289.3" y="497.5" class="st0" width="15.9" height="85.9"/>
      <path class="st0" d="M1342.5,520.9c-18-0.2-29.3,13.5-29.2,31.9c-0.3,19.6,13.8,32.1,29.2,31.9c15,0,24.7-8.4,27.7-20.6h-15.8 c-1.1,4.5-5,7.7-10.8,7.7h-1c-6.7,0-13.2-5.8-13.8-14h41.4c0.2-2.6,0.2-4.5,0.2-5.8C1370.7,534.1,1360.4,520.7,1342.5,520.9z M1328.8,545.5c0.4-7.2,5.9-11.7,12.6-11.7h1c6.7,0,12.3,4.5,12.6,11.7H1328.8z"/>
    </g>
    <g>
      <path class="st0" d="M1431.1,583.7l-19.6-29.5l-19.9,29.5h-18.2l29.1-43.1l-27.3-41h19.1l17.8,26.8l18.1-26.8h18.2l-27.3,40.4 l29.1,43.7L1431.1,583.7L1431.1,583.7z"/>
    </g>
  </g>
</svg>