<?xml version="1.0" encoding="utf-8"?>
<!-- Generator: Adobe Illustrator 26.3.1, SVG Export Plug-In . SVG Version: 6.00 Build 0)  -->
<svg version="1.1" id="Layer_1" xmlns="http://www.w3.org/2000/svg" xmlns:xlink="http://www.w3.org/1999/xlink" x="0px" y="0px"
	 viewBox="0 0 220 48" style="enable-background:new 0 0 220 48;" xml:space="preserve">
<style type="text/css">
	.st0{fill:#FFFFFF;}
</style>
<g>
	<path class="st0" d="M24.2,0.2C11.1,0.2,0.4,10.9,0.4,24s10.7,23.8,23.8,23.8S48.1,37.1,48.1,24S37.4,0.2,24.2,0.2z M26.2,17.1
		l1-1.1l3.2-3.7h3l-6.1,7.2c0,0-0.6-0.8-1-1.1C25.9,18,25.9,17.4,26.2,17.1z M18.5,12.3c0,0,5.2,6.1,7,8c0.3,0.3,0.2,0.7,0,1.1
		c-1,1.2-1.1,1.2-1.1,1.2l-8.9-10.3C15.5,12.3,18.5,12.3,18.5,12.3z M22.6,30.8l-1,1.1l-3.2,3.8h-2.9l6.1-7.2c0,0,0.6,0.8,1,1.1
		C23,29.8,22.9,30.5,22.6,30.8z M22.8,24.4c-2.5,3-9.6,11.2-9.6,11.2H10l9.6-11.1c0.3-0.3,0.3-0.8,0-1.3l-9.5-11h3.1l9.5,11.1
		C23,23.7,23,24.1,22.8,24.4z M30.3,35.6L23.8,28l-0.3-0.4c-0.3-0.3-0.3-1,0-1.3l12.1-14.1h3l-12.2,14c-0.3,0.3-0.3,0.8,0,1.3l7,8.1
		H30.3L30.3,35.6z M35.8,35.6c0,0-5.3-6.1-7-8.1c-0.2-0.2-0.3-0.5-0.2-0.8c0.1-0.1,0.2-0.3,0.3-0.4l0.8-0.8l8.9,10.4L35.8,35.6
		L35.8,35.6z"/>
	<g>
		<g>
			<rect x="60.9" y="14.2" class="st0" width="3.7" height="19"/>
			<path class="st0" d="M83.7,19.3c-1.8,0-3.5,0.7-4.5,2.3c-0.7-1.6-2.2-2.3-4.1-2.3c-1.6,0-3.2,0.7-4,2.2v-1.9h-3.5v13.6H71v-7.6
				c0-1.9,1.3-3.3,3-3.3h0.2c1.5,0,2.1,1,2.1,2.7v8.1h3.5v-7.6c0-1.9,1.3-3.3,3-3.3H83c1.5,0,2.1,1,2.1,2.7v8.1h3.5v-8.6
				c0-1.6-0.4-2.9-1.2-3.9C86.7,19.9,85.4,19.3,83.7,19.3z"/>
			<path class="st0" d="M107.3,19.3c-1.8,0-3.5,0.7-4.5,2.3c-0.7-1.6-2.2-2.3-4.1-2.3c-1.6,0-3.2,0.7-4,2.2v-1.9h-3.5v13.6h3.5v-7.6
				c0-1.9,1.3-3.3,3-3.3h0.2c1.5,0,2.1,1,2.1,2.7v8.1h3.5v-7.6c0-1.9,1.3-3.3,3-3.3h0.2c1.5,0,2.1,1,2.1,2.7v8.1h3.5v-8.6
				c0-1.6-0.4-2.9-1.2-3.9C110.1,19.9,109,19.3,107.3,19.3z"/>
			<path class="st0" d="M134,28.8v-6.2h3.1v-2.9H134v-4.4h-3.5v4.4h-4h-3.4H123v7.5c0,1.9-1.3,3.5-2.9,3.5H120c-1.3,0-2-1-2-2.7
				v-8.4h-3.5v8.7c0,1.6,0.4,2.9,1.2,3.8c0.7,1,1.9,1.4,3.5,1.4c1.7,0,3.2-0.8,4-2.2v2h3.5V22.5h4v7.2c0,2.3,1.3,3.5,3.5,3.5h3.5v-3
				h-1.9C134.4,30.2,134,30,134,28.8z"/>
			<path class="st0" d="M150.1,24.2c0-3.2-2.3-4.9-5.7-4.9c-3.4,0-5.6,1.9-5.8,4.4h3.6c0.1-0.8,1-1.6,2.2-1.6h0.2
				c1.3,0,2.2,1,2.2,2.2v0.3l-3.6,0.3c-1.5,0.1-2.6,0.5-3.6,1.3c-1,0.7-1.4,1.8-1.4,3.2c0,2.4,2,4,4.4,4c1.7,0,3.2-0.7,4-1.9
				c0,0.7,0.1,1.3,0.2,1.7h3.3c-0.1-0.6-0.1-1.6-0.1-3V24.2L150.1,24.2z M146.7,27.7c0,1.7-1.4,3-3.1,3h-0.2c-1,0-1.7-0.5-1.7-1.4
				c0-0.5,0.2-1,0.6-1.2c0.4-0.3,0.8-0.4,1.4-0.5l3-0.3L146.7,27.7L146.7,27.7z"/>
			<path class="st0" d="M160.1,19.3c-1.8,0-3.4,1.1-3.9,2v-7.2h-3.5v19h3.5v-1.8c0.6,1,2.1,2,3.9,2c3.8,0.1,6.1-3.4,6-7.1
				C166.2,22.7,163.9,19.2,160.1,19.3z M159.4,30.7h-0.2c-1.6,0-3.2-1.7-3.1-4.2c0-2.5,1.5-4.2,3.1-4.2h0.2c1.8,0,3.1,1.6,3.1,4.2
				C162.6,29,161.2,30.7,159.4,30.7z"/>
			<rect x="167.9" y="14.2" class="st0" width="3.5" height="19"/>
			<path class="st0" d="M179.7,19.3c-4-0.1-6.6,3-6.5,7.1c-0.1,4.3,3.1,7.1,6.5,7.1c3.4,0,5.5-1.9,6.1-4.5h-3.5
				c-0.2,1-1.2,1.7-2.4,1.7h-0.2c-1.5,0-3-1.3-3.1-3.1h9.2c0-0.6,0.1-1.1,0.1-1.3C186,22.3,183.6,19.3,179.7,19.3z M176.7,24.8
				c0.1-1.6,1.3-2.6,2.9-2.6h0.2c1.5,0,2.7,1,2.9,2.6H176.7z"/>
		</g>
		<g>
			<path class="st0" d="M199.4,33.3l-4.3-6.6l-4.4,6.6h-4l6.5-9.6l-6-9.1h4.2l3.9,5.9l4-5.9h4l-6,9l6.5,9.7H199.4L199.4,33.3z"/>
		</g>
	</g>
</g>
</svg>
