<svg width="120" height="22" viewBox="0 0 120 22" fill="none" xmlns="http://www.w3.org/2000/svg">
<g clip-path="url(#clip0)">
<path fill-rule="evenodd" clip-rule="evenodd" d="M34.9998 14.0003C34.9998 15.7003 34.0331 16.667 32.1331 16.667H27.5665V14.667H31.5998C32.1998 14.667 32.4665 14.467 32.4665 13.9337C32.4665 13.5003 32.1331 13.2337 31.4331 12.767L29.0331 10.9337C27.8331 10.0337 27.2998 9.16699 27.2998 8.16699C27.2998 6.46699 28.3331 5.66699 30.3331 5.66699H34.7998V7.66699H30.7998C30.1665 7.66699 29.8665 7.86699 29.8665 8.40033C29.8665 8.80033 30.1998 9.06699 30.8998 9.53366L33.2665 11.167C34.4998 12.0003 34.9998 13.0003 34.9998 14.0003Z" fill="#F6F6F6"/>
<path fill-rule="evenodd" clip-rule="evenodd" d="M44.3333 7.66699H41.4333V16.667H38.9V7.66699H36V5.66699H44.3333V7.66699Z" fill="#F6F6F6"/>
<path fill-rule="evenodd" clip-rule="evenodd" d="M51.2 12.7003L49.6667 8.36699L48.1333 12.7337H51.2V12.7003ZM51.8667 14.5337H47.4667L46.7333 16.667H44L48.3667 5.66699H51L55.3333 16.667H52.6333L51.8667 14.5337Z" fill="#F6F6F6"/>
<path fill-rule="evenodd" clip-rule="evenodd" d="M59.6667 10.867C61.0667 10.867 61.4667 10.367 61.4667 9.23366C61.4667 8.06699 61.0667 7.56699 59.6667 7.56699H58.5667V10.867H59.6667ZM64.3333 16.667H61.7667L61.2667 14.567C60.9333 13.1003 60.6667 12.7003 59.5333 12.7003H58.5V16.667H56V5.66699H60.5667C62.9333 5.66699 64.0333 6.70033 64.0333 8.96699C64.0333 10.5003 63.4333 11.4337 62.2 11.8003C63.0667 12.2003 63.5 13.0337 63.8667 14.567L64.3333 16.667Z" fill="#F6F6F6"/>
<path fill-rule="evenodd" clip-rule="evenodd" d="M68.4667 11.0003L72.4333 5.66699H75.4L71.2333 11.0003L75.6667 16.667H72.7L68.4667 11.0003ZM66 16.667H68.4667V5.66699H66V16.667Z" fill="#F6F6F6"/>
<path fill-rule="evenodd" clip-rule="evenodd" d="M92 5.66699L88.6667 16.667H87.1333L84.5 7.86699L81.8667 16.667H80.3L77 5.66699H78.5333L81.1333 14.967L83.8667 5.66699H85.1L87.8667 14.967L90.4667 5.66699H92Z" fill="#F6F6F6"/>
<path fill-rule="evenodd" clip-rule="evenodd" d="M98.6002 12.767L96.5335 7.26699L94.4335 12.767H98.6002ZM99.0002 13.8003H94.0002L92.9002 16.667H91.3335L95.7335 5.66699H97.2668L101.667 16.667H100.067L99.0002 13.8003Z" fill="#F6F6F6"/>
<path fill-rule="evenodd" clip-rule="evenodd" d="M106.467 11.067C108.2 11.067 108.867 10.4003 108.867 8.90033C108.867 7.46699 108.2 6.76699 106.467 6.76699H104.467V11.067H106.467ZM110.667 16.667H109.2L108.8 14.767C108.4 12.8003 107.9 12.1337 106.4 12.1003H104.467V16.667H103V5.66699H106.933C109.267 5.66699 110.3 6.70033 110.3 8.76699C110.3 10.3337 109.633 11.3003 108.267 11.6003C109.333 12.0003 109.833 12.9337 110.233 14.767L110.667 16.667Z" fill="#F6F6F6"/>
<path fill-rule="evenodd" clip-rule="evenodd" d="M114.467 6.83366V10.167H119.367V11.267H114.467V13.6337C114.467 14.9337 115.033 15.5337 116.333 15.5337H120V16.667H116.1C113.8 16.667 113 15.9003 113 13.7337V5.66699H120V6.83366H114.467Z" fill="#F6F6F6"/>
<path fill-rule="evenodd" clip-rule="evenodd" d="M10.6667 12.4004L8.76671 14.3337C8.76671 14.3337 8.73338 14.3337 8.73338 14.3004L9.46671 11.5337C9.53338 11.3337 9.46671 11.1004 9.33338 10.9671L7.43338 9.03372C7.43338 9.00039 7.43338 9.00039 7.46671 9.00039L10.1334 9.73372C10.3334 9.80039 10.5334 9.73372 10.7 9.60039L12.6 7.66706C12.6 7.66706 12.6334 7.66706 12.6334 7.70039L11.9 10.4671C11.8334 10.6671 11.9 10.9004 12.0334 11.0337L13.9334 12.9671C13.9334 13.0004 13.9334 13.0004 13.9001 13.0004L11.2334 12.2671C11.0334 12.2004 10.8 12.2671 10.6667 12.4004ZM21.2667 10.8004L16.7334 6.16706C16.5667 6.00039 16.3667 5.96706 16.1667 6.03372L13.2001 6.86706C13.2001 6.86706 13.1667 6.86706 13.1667 6.83372V6.80039C13.5001 6.56706 13.9667 6.16706 15.1667 4.96706C15.2667 4.86706 15.2667 4.66706 15.1667 4.56706L10.8334 0.100391C10.7334 0.000390623 10.5334 0.000390623 10.4334 0.100391L5.96671 4.73372C5.80004 4.90039 5.76671 5.10039 5.83337 5.30039L6.63337 8.36706C6.63337 8.40039 6.63337 8.40039 6.60004 8.40039H6.56671C6.36671 8.06706 5.96671 7.56706 4.80004 6.36706C4.70004 6.26706 4.50004 6.26706 4.40004 6.36706L0.0666993 10.8337C-0.0333008 10.9337 -0.0333008 11.1337 0.0666993 11.2337L4.56671 15.8671C4.73337 16.0337 4.93337 16.0671 5.13337 16.0004L8.10004 15.1671C8.10004 15.1671 8.13338 15.1671 8.13338 15.2004V15.2337C7.80004 15.4671 7.33338 15.8671 6.13337 17.0671C6.03337 17.1671 6.03337 17.3671 6.13337 17.4671L10.4667 21.9337C10.5667 22.0337 10.7667 22.0337 10.8667 21.9337L15.3667 17.3004C15.5334 17.1337 15.5667 16.9337 15.5001 16.7337L14.7001 13.6671C14.7001 13.6337 14.7001 13.6337 14.7334 13.6337H14.7667C14.9667 13.9671 15.3667 14.4671 16.5334 15.6671C16.6334 15.7671 16.8334 15.7671 16.9334 15.6671L21.2667 11.2004C21.3667 11.1004 21.3667 10.9004 21.2667 10.8004Z" fill="#F6F6F6"/>
</g>
<defs>
<clipPath id="clip0">
<rect width="120" height="22" fill="white"/>
</clipPath>
</defs>
</svg>

