<?xml version="1.0" encoding="utf-8"?>
<svg version="1.1" id="Layer_1" x="0px" y="0px" viewBox="0 0 1920 1080" style="enable-background:new 0 0 1920 1080;" xmlns="http://www.w3.org/2000/svg">
  <path d="M 107.581 1.535 C 48.321 1.535 0.281 49.575 0.281 108.835 C 0.281 168.095 48.321 216.135 107.581 216.135 C 166.841 216.135 214.881 168.095 214.881 108.835 C 214.881 49.575 166.841 1.535 107.581 1.535 Z M 116.381 77.745 L 120.551 72.875 L 135.011 56.015 L 148.091 56.015 L 120.421 88.235 C 120.421 88.235 117.341 84.585 116.291 83.365 C 114.921 81.725 114.961 79.295 116.381 77.745 Z M 81.621 56.015 C 81.621 56.015 104.791 83.745 113.181 92.345 C 114.521 93.685 114.271 95.445 113.061 96.875 C 108.601 102.115 108.481 102.205 108.481 102.205 L 68.621 56.015 L 81.621 56.015 Z M 100.461 139.235 L 96.291 144.105 L 81.831 160.965 L 68.751 160.965 L 96.421 128.745 C 96.421 128.745 99.501 132.395 100.551 133.615 C 101.921 135.255 101.881 137.685 100.461 139.235 Z M 100.981 110.925 C 89.721 123.975 58.041 160.965 58.041 160.965 L 43.981 160.965 L 87.081 111.045 C 88.461 109.455 88.461 107.055 87.081 105.505 L 44.311 56.015 L 57.841 56.015 L 100.861 105.935 C 101.961 107.405 102.161 109.535 100.981 110.925 Z M 135.011 160.965 L 105.801 126.905 L 104.341 125.055 C 102.961 123.465 103.001 120.985 104.421 119.435 L 158.871 56.015 L 172.361 56.015 L 117.591 118.605 C 116.171 120.155 116.131 122.635 117.511 124.225 L 149.111 160.975 L 135.011 160.975 L 135.011 160.965 Z M 159.881 160.965 C 159.881 160.965 136.301 133.445 128.441 124.255 C 127.551 123.205 127.221 121.785 127.551 120.485 C 127.791 119.775 128.321 118.975 128.811 118.425 L 132.461 114.395 L 172.681 160.955 L 159.881 160.955 L 159.881 160.965 Z"/>
  <g transform="matrix(1, 0, 0, 1, -534.989014, -432.985321)">
    <g>
      <rect x="807.37" y="497.52" width="16.53" height="85.87"/>
      <path d="M910.49,520.88c-8.2,0-15.75,3.41-20.24,10.54c-3.35-6.95-10.06-10.54-18.74-10.54c-7.37,0-14.19,3.23-18.32,9.88v-8.68 h-15.93v61.32h15.93v-34.07c0-8.56,5.81-14.97,13.17-14.97h0.96c6.53,0,9.58,4.13,9.58,12.28v36.77h15.93v-34.07 c0-8.56,5.75-14.97,13.11-14.97h0.96c6.53,0,9.46,4.13,9.46,12.28v36.77h15.93v-38.62c0-7.25-1.74-13.05-5.21-17.43 C923.54,523.03,918.03,520.88,910.49,520.88z"/>
      <path d="M1016.42,520.88c-8.2,0-15.75,3.41-20.24,10.54c-3.35-6.95-10.06-10.54-18.74-10.54c-7.37,0-14.19,3.23-18.32,9.88v-8.68 h-15.93v61.32h15.93v-34.07c0-8.56,5.81-14.97,13.17-14.97h0.96c6.53,0,9.58,4.13,9.58,12.28v36.77h15.93v-34.07 c0-8.56,5.75-14.97,13.11-14.97h0.96c6.53,0,9.46,4.13,9.46,12.28v36.77h15.93v-38.62c0-7.25-1.74-13.05-5.21-17.43 C1029.47,523.03,1023.96,520.88,1016.42,520.88z"/>
      <path d="M1137.08,563.15v-28.2h13.71v-12.87h-13.71v-19.88h-15.93v19.88h-18.09h-15.44h-0.49v34.07c0,8.56-5.69,15.57-12.63,15.57 h-0.96c-5.81,0-9.1-4.31-9.1-12.22v-37.42h-15.93v39.22c0,7.12,1.74,12.75,5.21,16.95c3.41,4.25,8.62,6.35,15.51,6.35 c7.6,0,14.13-3.89,17.9-10.18v8.98h15.93v-48.44h18.09v32.51c0,10.36,5.57,15.93,15.93,15.93h15.57v-13.47h-8.8 C1138.22,569.92,1137.08,568.78,1137.08,563.15z"/>
      <path d="M1209.48,542.91c0-14.13-10.3-22.04-25.75-22.04c-15.09,0-25.09,8.56-26.41,20.18h15.99c0.36-3.71,4.13-7.31,9.88-7.31 h1.02c5.87,0,9.82,4.25,9.82,9.76v1.5l-15.45,1.38c-6.59,0.54-11.98,2.45-16.17,5.81c-4.19,3.35-6.29,8.14-6.29,14.37 c-0.18,10.78,9.1,18.14,20.12,18.02c7.84,0,14.31-3.35,18.14-8.68c0.12,3.23,0.36,5.75,0.72,7.48h14.97 c-0.42-2.87-0.6-7.37-0.6-13.47V542.91z M1194.03,558.36c0,7.72-6.41,13.35-13.65,13.35h-0.96c-4.37,0-7.6-2.46-7.6-6.23 c0-2.34,0.9-4.07,2.69-5.33c1.8-1.26,3.89-1.98,6.23-2.16l13.29-1.38V558.36z"/>
      <path d="M1254.09,520.88c-8.2,0-15.03,4.67-17.67,9.16v-32.51h-15.93v85.87h15.93v-7.96c2.64,4.49,9.46,9.16,17.67,9.16 c17.19,0.3,27.42-15.09,27.24-31.86C1281.52,535.96,1271.28,520.58,1254.09,520.88z M1251.4,571.71h-0.96 c-7.31,0.18-14.13-7.72-14.01-18.98c-0.12-11.26,6.71-19.16,14.01-18.98h0.96c8.02,0,14.01,7.36,14.01,18.86 C1265.41,564.11,1259.36,571.71,1251.4,571.71z"/>
      <rect x="1289.31" y="497.52" width="15.93" height="85.87"/>
      <path d="M1342.54,520.88c-17.96-0.24-29.34,13.53-29.16,31.86c-0.3,19.58,13.77,32.1,29.16,31.86c15.03,0,24.73-8.38,27.72-20.6 h-15.81c-1.14,4.49-5.03,7.72-10.78,7.72h-1.02c-6.65,0-13.23-5.75-13.83-13.95h41.44c0.18-2.63,0.24-4.55,0.24-5.75 C1370.69,534.11,1360.45,520.7,1342.54,520.88z M1328.83,545.49c0.36-7.25,5.93-11.74,12.64-11.74h0.96 c6.71,0,12.28,4.49,12.63,11.74H1328.83z"/>
    </g>
    <g>
      <path d="M1431.06,583.7l-19.6-29.52l-19.95,29.52h-18.25l29.11-43.13l-27.29-41.02h19.07l17.84,26.82l18.13-26.82h18.25 l-27.29,40.43l29.11,43.72H1431.06z"/>
    </g>
  </g>
</svg>